<svg xmlns="http://www.w3.org/2000/svg" viewBox="0 0 90 89.99"><g id="Calque_2" data-name="Calque 2"><g id="Calque_1-2" data-name="Calque 1"><path d="M66.55,43.1A23.45,23.45,0,1,0,90,66.55,23.44,23.44,0,0,0,66.55,43.1ZM77.87,69H66.55a2.5,2.5,0,0,1-2.5-2.5h0v-15a2.5,2.5,0,0,1,5,0V64h8.82a2.5,2.5,0,0,1,0,5Z"/><path d="M26.45,31.66h8.39a.85.85,0,0,1,.86.86h0v5.61a.85.85,0,0,1-.86.85H26.45a.85.85,0,0,1-.86-.85h0V32.52A.85.85,0,0,1,26.45,31.66Z"/><path d="M42.16,31.66h8.39a.85.85,0,0,1,.86.86h0v5.61a.85.85,0,0,1-.86.85H42.16a.85.85,0,0,1-.86-.85h0V32.52a.85.85,0,0,1,.86-.86Z"/><path d="M57.87,31.66h8.39a.85.85,0,0,1,.86.86h0v5.61a.85.85,0,0,1-.86.85H57.87a.85.85,0,0,1-.86-.85h0V32.52a.85.85,0,0,1,.86-.86Z"/><path d="M10.74,45.35h8.39a.85.85,0,0,1,.86.85h0v5.61a.85.85,0,0,1-.86.85h-8.4a.85.85,0,0,1-.85-.85h0V46.2a.85.85,0,0,1,.86-.85Z"/><path d="M26.45,45.35h8.39a.85.85,0,0,1,.86.85h0v5.61a.85.85,0,0,1-.86.85H26.45a.85.85,0,0,1-.86-.85h0V46.2a.85.85,0,0,1,.86-.85Z"/><path d="M10.73,59h8.4a.85.85,0,0,1,.86.85h0v5.61a.85.85,0,0,1-.86.86h-8.4a.85.85,0,0,1-.85-.86h0V59.88A.85.85,0,0,1,10.73,59Z"/><path d="M26.45,59h8.39a.85.85,0,0,1,.86.85h0v5.61a.85.85,0,0,1-.86.86H26.45a.85.85,0,0,1-.86-.86h0V59.88a.85.85,0,0,1,.86-.85Z"/><path d="M49.14,45.35h-7a.85.85,0,0,0-.86.85h0v5.61a.85.85,0,0,0,.86.85h.73A27.73,27.73,0,0,1,49.14,45.35Z"/><path d="M8.19,72.71A3.91,3.91,0,0,1,4.28,68.8V25.3H72.72V39.81A27,27,0,0,1,77,41.17V15.68a8.19,8.19,0,0,0-8.19-8.19H62V3a3,3,0,0,0-6,0v4.5H21V3a3,3,0,0,0-6,0v4.5H8.19A8.19,8.19,0,0,0,0,15.68V68.8A8.19,8.19,0,0,0,8.19,77h33a26.34,26.34,0,0,1-1.37-4.28ZM56,11.77v1.11a3,3,0,0,0,6,0V11.77a5.13,5.13,0,1,1-7.17,1.17A5.24,5.24,0,0,1,56,11.77ZM15,11.77v1.11a3,3,0,0,0,6,0V11.77a5.13,5.13,0,1,1-7.16,1.17A5,5,0,0,1,15,11.77Z"/></g></g></svg>