<svg xmlns="http://www.w3.org/2000/svg" viewBox="0 0 83.32 70"><g id="Calque_2" data-name="Calque 2"><g id="Calque_1-2" data-name="Calque 1"><path d="M65.32,55.05c5.79-6.88,11.43-3.41,11.43-3.41C73,59.5,65.32,55.05,65.32,55.05Z"/><path d="M49.25,61.8a.52.52,0,0,1-.2-1c15.16-6.46,24-14.67,26.27-24.42a25.63,25.63,0,0,0-2-16.26,31.79,31.79,0,0,0-4.2-6.88.51.51,0,0,1,.78-.67,31.73,31.73,0,0,1,4.36,7.12,26.67,26.67,0,0,1,2.08,16.92C74,46.71,64.94,55.16,49.45,61.75A.46.46,0,0,1,49.25,61.8Z"/><path d="M63.24,0c7.82,3.1,5,11.82,5,11.82C59.38,5.74,63.24,0,63.24,0Z"/><path d="M73.57,2.55C80.64,11.36,74.75,17,74.75,17,69,9.07,73.57,2.55,73.57,2.55Z"/><path d="M61.79,13.33c6.59-.73,8.66,6.25,8.66,6.25C64.39,21,61.79,13.33,61.79,13.33Z"/><path d="M81.14,15.53C83.92,25.09,78,26.22,78,26.22,74.25,17.74,81.14,15.53,81.14,15.53Z"/><path d="M65.39,22c9.11.24,9,9.57,9,9.57C68.58,32.66,65.39,22,65.39,22Z"/><path d="M70.1,32.72c4.66,5.93,0,12.55,0,12.55C64,41.76,70.1,32.72,70.1,32.72Z"/><path d="M64.73,42.36c2.88,7.29-4.2,10.86-4.2,10.86C57.19,45.71,64.73,42.36,64.73,42.36Z"/><path d="M49.45,59.28c-1.38-7.35,7.73-9.36,7.73-9.36C59.25,54.36,49.45,59.28,49.45,59.28Z"/><path d="M77.81,37c7.34-.9,5.24-9.26,5.24-9.26C76.21,29.41,77.81,37,77.81,37Z"/><path d="M73.82,47.8c1.1-9,8.83-8.17,8.83-8.17C83,45.54,73.82,47.8,73.82,47.8Z"/><path d="M68.58,60.63c-7.92,4.5-11.34-1.52-11.34-1.52C61.86,55.44,68.58,60.63,68.58,60.63Z"/><path d="M62.16,65.22c-4.79,4.94-12.44-1.84-12.44-1.84C51.78,59.33,62.16,65.22,62.16,65.22Z"/><path d="M47,63.7s5.39,1.88,5.15,6.3C52.18,70,46.54,67.89,47,63.7Z"/><path d="M6.58,51.64S12.22,48.17,18,55.05C18,55.05,10.29,59.5,6.58,51.64Z"/><path d="M34.07,61.8a.53.53,0,0,0,.48-.32.51.51,0,0,0-.28-.67C19.11,54.35,10.27,46.14,8,36.39,6.5,29.92,8.28,24,10,20.13a31.57,31.57,0,0,1,4.21-6.88.52.52,0,0,0-.79-.67A32.36,32.36,0,0,0,9.09,19.7,26.61,26.61,0,0,0,7,36.62C9.35,46.71,18.39,55.16,33.87,61.76A.65.65,0,0,0,34.07,61.8Z"/><path d="M15.07,11.82S12.26,3.1,20.08,0C20.08,0,23.94,5.74,15.07,11.82Z"/><path d="M8.58,17S2.69,11.36,9.75,2.55C9.75,2.55,14.38,9.07,8.58,17Z"/><path d="M12.88,19.58s2.06-7,8.65-6.25C21.53,13.33,18.93,21,12.88,19.58Z"/><path d="M5.33,26.22S-.6,25.09,2.19,15.53C2.19,15.53,9.08,17.74,5.33,26.22Z"/><path d="M8.91,31.6s-.09-9.33,9-9.57C17.94,22,14.75,32.66,8.91,31.6Z"/><path d="M13.22,45.27s-4.65-6.62,0-12.55C13.22,32.72,19.32,41.76,13.22,45.27Z"/><path d="M22.79,53.23s-7.07-3.58-4.2-10.87C18.59,42.36,26.14,45.71,22.79,53.23Z"/><path d="M26.15,49.92s9.11,2,7.73,9.36C33.88,59.28,24.07,54.36,26.15,49.92Z"/><path d="M.28,27.76S-1.82,36.12,5.52,37C5.52,37,7.11,29.41.28,27.76Z"/><path d="M.68,39.63S8.4,38.75,9.5,47.8C9.5,47.8.37,45.54.68,39.63Z"/><path d="M26.09,59.11s-3.42,6-11.35,1.52C14.74,60.63,21.46,55.44,26.09,59.11Z"/><path d="M33.61,63.38S26,70.16,21.17,65.22C21.17,65.22,31.54,59.33,33.61,63.38Z"/><path d="M31.15,70c-.24-4.42,5.14-6.3,5.14-6.3C36.78,67.89,31.15,70,31.15,70Z"/></g></g></svg>